<mxfile host="app.diagrams.net" modified="2023-04-11T11:41:52.502Z" agent="Mozilla/5.0 (Macintosh; Intel Mac OS X 10_15_7) AppleWebKit/537.36 (KHTML, like Gecko) Chrome/112.0.0.0 Safari/537.36" version="21.1.5" etag="v3x4cuylCGJhOHB41HS5" type="github">
  <diagram name="Page-1" id="iuhnjKxcMRvZUDXRx--o">
    <mxGraphModel>
      <root>
        <mxCell id="0" />
        <mxCell id="1" parent="0" />
      </root>
    </mxGraphModel>
  </diagram>
</mxfile>
